<svg width="14" height="14" viewBox="0 0 14 14" fill="none" xmlns="http://www.w3.org/2000/svg">
<path fill-rule="evenodd" clip-rule="evenodd" d="M6.29979 1.4C3.59368 1.4 1.39995 3.5938 1.39995 6.3C1.39995 9.00619 3.59368 11.2 6.29979 11.2C9.00589 11.2 11.1996 9.00619 11.1996 6.3C11.1996 3.5938 9.00589 1.4 6.29979 1.4ZM0 6.3C0 2.8206 2.82051 0 6.29979 0C9.77906 0 12.5996 2.8206 12.5996 6.3C12.5996 9.77939 9.77906 12.6 6.29979 12.6C2.82051 12.6 0 9.77939 0 6.3Z" fill="#828282"/>
<path fill-rule="evenodd" clip-rule="evenodd" d="M9.76017 9.76003C10.0335 9.48666 10.4767 9.48666 10.7501 9.76003L13.795 12.805C14.0683 13.0784 14.0683 13.5216 13.795 13.795C13.5216 14.0683 13.0784 14.0683 12.8051 13.795L9.76017 10.75C9.48681 10.4766 9.48681 10.0334 9.76017 9.76003Z" fill="#828282"/>
</svg>
